<svg width="12" height="12" viewBox="0 0 12 12" fill="none" xmlns="http://www.w3.org/2000/svg">
<path d="M11.1189 1.45669V8.85044C11.1189 9.00128 11.059 9.14595 10.9523 9.25261C10.8457 9.35927 10.701 9.41919 10.5502 9.41919C10.3993 9.41919 10.2547 9.35927 10.148 9.25261C10.0413 9.14595 9.98142 9.00128 9.98142 8.85044V2.82951L1.85256 10.9591C1.74584 11.0658 1.6011 11.1258 1.45017 11.1258C1.29924 11.1258 1.1545 11.0658 1.04778 10.9591C0.941058 10.8524 0.881104 10.7076 0.881104 10.5567C0.881104 10.4058 0.941058 10.261 1.04778 10.1543L9.17735 2.02544L3.15642 2.02544C3.00558 2.02544 2.86091 1.96552 2.75425 1.85886C2.64759 1.7522 2.58767 1.60753 2.58767 1.45669C2.58767 1.30585 2.64759 1.16118 2.75425 1.05452C2.86091 0.947861 3.00558 0.887939 3.15642 0.887939L10.5502 0.887939C10.701 0.887939 10.8457 0.947861 10.9523 1.05452C11.059 1.16118 11.1189 1.30585 11.1189 1.45669Z" fill="white"/>
</svg>
