<svg width="24" height="24" viewBox="0 0 24 24" fill="none" xmlns="http://www.w3.org/2000/svg">
<path d="M3.78261 3C3.35039 3 3 3.35039 3 3.78261C3 4.21483 3.35039 4.56522 3.78261 4.56522H5.1751C5.28905 4.56522 5.4001 4.60107 5.49254 4.6677C5.58497 4.73433 5.6541 4.82835 5.69013 4.93645L8.27038 12.6787C8.38496 13.0224 8.39953 13.3925 8.31165 13.7441L8.09918 14.5954C7.78744 15.8424 8.75811 17.087 10.0435 17.087H19.4348C19.867 17.087 20.2174 16.7366 20.2174 16.3043C20.2174 15.8721 19.867 15.5217 19.4348 15.5217H10.0435C9.73874 15.5217 9.54311 15.2717 9.61702 14.9761L9.77724 14.3361C9.80439 14.2277 9.867 14.1314 9.95512 14.0627C10.0432 13.9939 10.1518 13.9565 10.2636 13.9565H18.6522C18.9891 13.9567 19.2884 13.7412 19.395 13.4215L21.4815 7.16067C21.6505 6.6537 21.273 6.13019 20.7386 6.13043H8.12976C8.01581 6.13043 7.90475 6.09458 7.81231 6.02796C7.71987 5.96133 7.65074 5.86731 7.61471 5.75921L6.8733 3.53499C6.76666 3.21534 6.4674 2.99982 6.13043 3H3.78261ZM9.26087 17.8696C8.39642 17.8696 7.69565 18.5703 7.69565 19.4348C7.69565 20.2992 8.39642 21 9.26087 21C10.1253 21 10.8261 20.2992 10.8261 19.4348C10.8261 18.5703 10.1253 17.8696 9.26087 17.8696ZM18.6522 17.8696C17.7877 17.8696 17.087 18.5703 17.087 19.4348C17.087 20.2992 17.7877 21 18.6522 21C19.5166 21 20.2174 20.2992 20.2174 19.4348C20.2174 18.5703 19.5166 17.8696 18.6522 17.8696Z" fill="black"/>
</svg>
