<svg width="93" height="93" viewBox="0 0 93 93" fill="none" xmlns="http://www.w3.org/2000/svg">
<rect x="2" y="2" width="89" height="89" rx="44.5" stroke="black" stroke-width="4"/>
<path d="M50.543 22.5547C50.543 24.3885 49.0565 25.875 47.2227 25.875H33.9414C32.1076 25.875 30.6211 24.3885 30.6211 22.5547C30.6211 20.7209 32.1076 19.2344 33.9414 19.2344H47.2227C49.0565 19.2344 50.543 20.7209 50.543 22.5547Z" fill="white"/>
<path d="M65.6211 31.9609C65.6211 34.7117 63.3913 36.9414 60.6406 36.9414C57.8899 36.9414 55.6602 34.7117 55.6602 31.9609C55.6602 29.2102 60.6406 23.6602 60.6406 23.6602C60.6406 23.6602 65.6211 29.2102 65.6211 31.9609Z" fill="#FFFF00"/>
<path d="M60.6406 22C60.1691 22 59.7199 22.2005 59.405 22.5513C58.5025 23.5572 54 28.7379 54 31.9609C54 35.6226 56.979 38.6016 60.6406 38.6016C64.3023 38.6016 67.2812 35.6226 67.2812 31.9609C67.2812 28.7379 62.7787 23.5572 61.8763 22.5513C61.5613 22.2005 61.1121 22 60.6406 22ZM60.6406 35.2813C58.8098 35.2813 57.3203 33.7918 57.3203 31.9609C57.3203 30.9029 58.8802 28.4319 60.64 26.2316C62.4042 28.4437 63.9609 30.9326 63.9609 31.9609C63.9609 33.7918 62.4714 35.2813 60.6406 35.2813Z" fill="black"/>
<g clip-path="url(#clip0_2643_993)">
<path d="M54.5 49L32 49.5C28.6667 55.3333 22 67.1 22 67.5C22 67.9 21.6667 69.6667 21.5 70.5L24 72.5L64 72L66 70.5C66.1667 69.5 66.4 67.4 66 67C65.6 66.6 58.1667 54.8333 54.5 49Z" fill="#FFFF00"/>
<path d="M68.0843 71.5734C69.0038 69.9497 68.9794 68.0246 68.0195 66.4243L50.9097 37.9085V26.2247H54.3179V16.0001H33.8687V26.2247H37.2769V37.9085L20.1675 66.4243C19.2076 68.0246 19.1832 69.9497 20.1027 71.5734C21.0222 73.1972 22.6855 74.1669 24.5516 74.1669H63.6355C65.5015 74.1669 67.1648 73.1972 68.0843 71.5734ZM40.6851 38.8529V22.8165H37.2769V19.4083H50.9097V22.8165H47.5015V38.8529L52.3307 46.9012H35.8563L40.6851 38.8529ZM65.1186 69.8942C64.9712 70.1542 64.5319 70.7587 63.6355 70.7587H24.5516C23.6547 70.7587 23.2158 70.1542 23.0685 69.8942C22.9211 69.6341 22.6287 68.9467 23.0902 68.1777L33.8114 50.3094H54.3756L65.0968 68.1777C65.5584 68.9467 65.2655 69.6341 65.1186 69.8942Z" fill="black"/>
<path d="M50.9097 53.7175H47.5015V67.3504H54.3179V63.9422H50.9097V53.7175Z" fill="black"/>
<path d="M39.8332 57.1257C40.4567 57.1257 41.0616 57.4399 41.5369 58.0097L44.1552 55.8281C43.0209 54.4671 41.4859 53.7175 39.8332 53.7175C38.1806 53.7175 36.646 54.4671 35.5117 55.8281C33.3128 58.4668 33.3128 62.6011 35.5117 65.2398C36.646 66.6008 38.1806 67.3504 39.8332 67.3504C41.4859 67.3504 43.0209 66.6008 44.1552 65.2398L41.5369 63.0581C41.0616 63.628 40.4567 63.9422 39.8332 63.9422C39.2102 63.9422 38.6053 63.628 38.13 63.0581C36.99 61.69 36.99 59.3779 38.13 58.0097C38.6053 57.4399 39.2102 57.1257 39.8332 57.1257Z" fill="black"/>
</g>
<line x1="72.6809" y1="9.58375" x2="23.6809" y2="85.5837" stroke="black" stroke-width="4"/>
<defs>
<clipPath id="clip0_2643_993">
<rect width="58.1667" height="58.1667" fill="white" transform="translate(15 16)"/>
</clipPath>
</defs>
</svg>
