<svg width="85" height="85" viewBox="0 0 85 85" fill="none" xmlns="http://www.w3.org/2000/svg">
<ellipse cx="42.5" cy="51.5" rx="20.5" ry="21.5" fill="#FFFF00"/>
<path d="M43.7886 10.3859C45.9667 10.3859 47.7331 10.9304 49.1675 11.7539C51.93 12.5109 55.1972 13.6929 58.3847 15.4859C55.994 9.52263 50.1901 5.29919 43.3769 5.29919H41.6503C34.8503 5.29919 29.0464 9.50935 26.6558 15.4461C34.2659 11.1562 42.394 10.439 42.8589 10.3992C43.2042 10.3726 43.5097 10.3726 43.8019 10.3726L43.7886 10.3859Z" fill="black"/>
<path d="M15.1404 47.5202C15.7911 46.7764 16.7341 46.3382 17.7568 46.3382C19.0716 46.3382 20.2802 47.0686 20.9044 48.2374C21.4622 49.26 22.1529 50.1499 22.8833 50.9069L23.1622 46.8296C23.1622 46.8296 22.2458 33.1897 46.3911 28.103C46.9888 27.9702 47.5599 27.7577 48.0779 27.4257C49.6185 26.4561 52.2216 24.0257 51.4779 18.9257C51.4779 18.9257 50.07 12.6038 43.0443 13.0686C43.0443 13.0686 28.4349 14.2374 20.7052 23.7202C20.7052 23.7202 12.2849 32.6053 14.6224 44.9967C14.6224 44.9967 14.7685 46.0061 15.1404 47.5202Z" fill="black"/>
<path d="M70.3778 44.9968C72.7153 32.6054 64.295 23.7203 64.295 23.7203C61.2137 19.9351 57.0434 17.5046 53.1254 15.9109C53.6036 16.8007 53.909 17.6507 54.0684 18.3414L54.095 18.5273C55.1043 25.3406 51.2129 28.5945 49.4997 29.6703C48.7958 30.1085 48.0122 30.4273 47.1754 30.6265C62.502 36.6828 61.8379 46.8296 61.8379 46.8296L62.3825 54.8382L61.3864 58.3312C58.8497 66.7648 50.9075 72.5554 42.1286 72.3828C34.7575 72.25 28.1965 67.8671 24.9426 61.2132C24.1856 61.7976 23.5215 62.4484 22.9504 63.0992C24.8231 66.6187 27.5192 69.5273 30.7333 71.5859V77.7617C30.7333 78.8242 31.5965 79.6875 32.659 79.6875H51.7309C52.7801 79.6875 53.6434 78.8242 53.6434 77.7617V72.0242C58.3715 69.2882 62.0637 64.8789 63.8036 59.4468C63.8567 59.4203 63.9231 59.407 63.9762 59.3539C68.9567 54.4265 70.3778 44.9968 70.3778 44.9968Z" fill="black"/>
<path d="M40.4151 48.1179C40.8534 47.5335 40.7471 46.6968 40.1627 46.2585C39.5784 45.8202 38.7416 45.9265 38.3034 46.5109C37.5596 47.4937 36.444 48.0515 35.2221 48.0515C34.0002 48.0515 32.8846 47.4937 32.1409 46.5109C31.7026 45.9265 30.8659 45.8069 30.2815 46.2585C29.6971 46.6968 29.5776 47.5335 30.0291 48.1179C31.2776 49.7648 33.1768 50.7077 35.2221 50.7077C37.2674 50.7077 39.1799 49.7648 40.4151 48.1179Z" fill="black"/>
<path d="M56.3526 48.1179C56.7909 47.5335 56.6846 46.6968 56.1002 46.2585C55.5159 45.8202 54.6791 45.9265 54.2409 46.5109C53.4971 47.4937 52.3815 48.0515 51.1596 48.0515C49.9377 48.0515 48.8221 47.4937 48.0784 46.5109C47.6401 45.9265 46.8034 45.8069 46.219 46.2585C45.6346 46.6968 45.5151 47.5335 45.9666 48.1179C47.2151 49.7648 49.1143 50.7077 51.1596 50.7077C53.2049 50.7077 55.1174 49.7648 56.3526 48.1179Z" fill="black"/>
<path d="M43.1768 63.8562C45.0229 63.8562 46.7362 63.2586 47.8916 62.2094C48.4362 61.718 48.476 60.8812 47.9846 60.3367C47.4932 59.7922 46.6565 59.7523 46.1119 60.2437C45.4479 60.8547 44.3455 61.2133 43.1768 61.2133C42.008 61.2133 40.9057 60.8547 40.2416 60.2437C39.6971 59.7523 38.8604 59.7922 38.369 60.3367C37.8776 60.8812 37.9174 61.718 38.4619 62.2094C39.6174 63.2586 41.344 63.8562 43.1768 63.8562Z" fill="black"/>
<path d="M25.4208 56.1931C23.5349 55.1173 20.4271 52.9525 18.5677 49.4861C18.2224 48.8486 17.3325 48.8087 16.9872 49.4462C15.9911 51.2392 13.9325 54.0814 10.1208 56.2064C9.50989 56.5517 9.48332 57.4283 10.1075 57.7603C11.9536 58.7697 15.0083 60.8947 17.0271 64.6533C17.3591 65.2775 18.2489 65.3173 18.5943 64.6931C19.67 62.7939 21.8615 59.6462 25.3943 57.747C26.0185 57.415 26.0583 56.5251 25.4474 56.1798L25.4208 56.1931Z" fill="black"/>
<path d="M74.9599 69.5672C73.6185 68.7571 71.706 67.336 70.431 65.1579C70.0724 64.5469 69.2091 64.5204 68.8505 65.1313C68.0935 66.393 66.699 68.1594 64.3216 69.5805C63.724 69.9391 63.7107 70.7758 64.3084 71.1344C65.6232 71.9047 67.5224 73.3391 68.8904 75.6899C69.2357 76.2875 70.0857 76.3274 70.4443 75.7297C71.2545 74.3883 72.7154 72.436 74.9201 71.1211C75.5177 70.7625 75.5576 69.9258 74.9599 69.5672Z" fill="black"/>
</svg>
