<svg width="26" height="26" viewBox="0 0 26 26" fill="none" xmlns="http://www.w3.org/2000/svg">
<rect width="26" height="26" rx="13" fill="black"/>
<path d="M18.1189 8.45004V15.8438C18.1189 15.9946 18.059 16.1393 17.9523 16.246C17.8457 16.3526 17.701 16.4125 17.5502 16.4125C17.3993 16.4125 17.2547 16.3526 17.148 16.246C17.0413 16.1393 16.9814 15.9946 16.9814 15.8438V9.82286L8.85256 17.9524C8.74584 18.0591 8.6011 18.1191 8.45017 18.1191C8.29924 18.1191 8.1545 18.0591 8.04778 17.9524C7.94106 17.8457 7.8811 17.701 7.8811 17.55C7.8811 17.3991 7.94106 17.2544 8.04778 17.1476L16.1774 9.01879H10.1564C10.0056 9.01879 9.86091 8.95886 9.75425 8.8522C9.64759 8.74554 9.58767 8.60088 9.58767 8.45004C9.58767 8.29919 9.64759 8.15453 9.75425 8.04787C9.86091 7.94121 10.0056 7.88129 10.1564 7.88129L17.5502 7.88129C17.701 7.88129 17.8457 7.94121 17.9523 8.04787C18.059 8.15453 18.1189 8.29919 18.1189 8.45004Z" fill="white"/>
</svg>
