<svg width="150" height="28" viewBox="0 0 150 28" fill="none" xmlns="http://www.w3.org/2000/svg">
<g clip-path="url(#clip0_4097_1947)">
<path d="M144.454 7.16522L144.536 7.1928C145.61 7.22031 146.547 7.96392 146.822 8.98284L146.85 9.09302L149.631 20.3841H145.941L144.289 13.6645L142.994 17.7678C142.609 18.897 141.562 19.6956 140.35 19.6956C139.194 19.6956 138.148 18.952 137.762 17.878L137.707 17.7678L136.412 13.6645L134.76 20.3841H131.097L133.851 9.09302L133.879 8.98284C134.182 7.90883 135.145 7.16522 136.275 7.16522L136.358 7.1928C137.376 7.22031 138.257 7.88125 138.616 8.81764L138.643 8.90024L140.35 14.2704L142.058 8.90024L142.086 8.81764C142.443 7.82616 143.38 7.16522 144.454 7.16522Z" fill="#656565"/>
<path d="M124.33 20.3841C120.667 20.3841 117.721 17.4374 117.721 13.7747V7.16522H121.273V13.7747C121.273 15.4546 122.65 16.8315 124.33 16.8315C125.982 16.8315 127.359 15.4546 127.359 13.7747V7.16522H130.94V13.7747C130.94 17.4374 127.965 20.3841 124.33 20.3841Z" fill="#656565"/>
<path d="M117.074 7.16522V10.7454C115.532 10.7454 114.182 11.7643 113.742 13.2514L113.108 15.3444C112.227 18.3462 109.473 20.3841 106.361 20.3841V16.8315C107.876 16.8315 109.253 15.8126 109.693 14.3255L110.299 12.2325C111.18 9.23071 113.934 7.16522 117.074 7.16522Z" fill="#656565"/>
<path d="M102.793 12.8934C103.371 12.8934 103.867 12.4252 103.867 11.8194C103.867 11.241 103.371 10.7454 102.793 10.7454H98.8545V12.8934H102.793ZM102.793 7.16522C105.354 7.16522 107.447 9.25822 107.447 11.8194C107.447 14.3805 105.354 16.4735 102.793 16.4735H98.8545V20.3841H95.302V10.3873C95.302 8.62486 96.7342 7.16522 98.4968 7.16522H102.793Z" fill="#656565"/>
<path d="M90.0085 7.16522H93.5611V20.3841H90.0085V7.16522Z" fill="#656565"/>
<path d="M81.9978 10.5801H81.2817C79.4918 10.5801 78.0596 12.0121 78.0596 13.7747C78.0596 15.5647 79.4918 16.9968 81.2817 16.9968H81.9978C83.7877 16.9968 85.2199 15.5647 85.2199 13.7747C85.2199 12.0121 83.7877 10.5801 81.9978 10.5801ZM81.2817 7H81.9978C85.7428 7 88.7724 10.0293 88.7724 13.7747C88.7724 17.5475 85.7428 20.5768 81.9978 20.5768H81.2817C77.5367 20.5768 74.5071 17.5475 74.5071 13.7747C74.5071 10.0293 77.5367 7 81.2817 7Z" fill="#656565"/>
<path d="M72.9981 10.7454H66.0584C64.3784 10.7454 63.0015 12.1223 63.0015 13.7747C63.0015 15.4546 64.3784 16.8315 66.0584 16.8315H69.5008C69.8588 16.7764 70.1617 16.4735 70.1617 16.088V15.7575H64.7916V12.1774H70.7679C72.4199 12.1774 73.7142 13.4993 73.7142 15.1241V16.088C73.7142 18.4289 71.869 20.329 69.5283 20.3841H66.0584C62.3956 20.3841 59.449 17.4374 59.449 13.7747C59.449 10.1395 62.3956 7.16522 66.0584 7.16522H72.9981V10.7454Z" fill="#656565"/>
<path d="M52.0437 10.5801H51.3276C49.5375 10.5801 48.1055 12.0121 48.1055 13.7747C48.1055 15.5647 49.5375 16.9968 51.3276 16.9968H52.0437C53.8337 16.9968 55.2657 15.5647 55.2657 13.7747C55.2657 12.0121 53.8337 10.5801 52.0437 10.5801ZM51.3276 7H52.0437C55.789 7 58.8183 10.0293 58.8183 13.7747C58.8183 17.5475 55.789 20.5768 52.0437 20.5768H51.3276C47.5823 20.5768 44.553 17.5475 44.553 13.7747C44.553 10.0293 47.5823 7 51.3276 7Z" fill="#656565"/>
<path d="M33 15.0415V7.16522H36.5526V15.0415C36.5526 16.0329 37.3512 16.8315 38.3426 16.8315H43.7128V20.3841H38.3426C35.3959 20.3841 33 17.9882 33 15.0415Z" fill="#656565"/>
<path d="M5.42871 1.75782C7.82887 0.426257 10.5678 -0.17043 13.3044 0.0419985C16.0408 0.254436 18.6546 1.2668 20.8205 2.95274C22.9864 4.63875 24.6087 6.92476 25.486 9.52546C26.3633 12.1262 26.4573 14.9276 25.7554 17.581L25.6145 18.0752C24.8675 20.5306 23.4587 22.7373 21.5383 24.4497L21.148 24.7847C19.171 26.4212 16.7791 27.4849 14.2327 27.8547L13.7227 27.9196C11.999 28.1056 10.2618 27.9676 8.59782 27.5218L10.9884 25.1313C11.929 25.2353 12.8838 25.2215 13.8301 25.0841C16.0031 24.7686 18.0358 23.8213 19.6748 22.36C21.3137 20.8986 22.4867 18.9872 23.0483 16.8645C23.5747 14.8745 23.5419 12.7803 22.9574 10.812L22.833 10.4203C22.1311 8.3398 20.8333 6.51091 19.1006 5.16212C17.4763 3.89775 15.5369 3.10741 13.4972 2.87344L13.0877 2.8338C10.8984 2.66385 8.70716 3.14121 6.78702 4.20645C5.5081 4.91602 4.3884 5.86696 3.48252 6.99756H0.100098C1.3674 4.80399 3.20682 2.99052 5.42871 1.75782Z" fill="#656565"/>
<path d="M7.60031 5.3558C9.21346 4.49363 11.0361 4.10072 12.8613 4.22035C14.6864 4.34003 16.442 4.96787 17.9287 6.03324C19.4153 7.09858 20.5743 8.55871 21.2743 10.2483C21.9742 11.938 22.1867 13.7908 21.8889 15.5953C21.5908 17.3998 20.7937 19.0854 19.5878 20.4605C18.3819 21.8355 16.8148 22.8458 15.0645 23.3767L14.735 23.471C13.9445 23.681 13.1338 23.7881 12.322 23.7965L17.0332 19.0858C17.1906 18.9369 17.3422 18.7812 17.4858 18.6175C18.3477 17.6348 18.9175 16.4298 19.1305 15.14C19.3434 13.8504 19.1912 12.5265 18.691 11.3188C18.1908 10.1111 17.3623 9.06761 16.2998 8.30622L16.0988 8.16671C15.0807 7.48967 13.901 7.09032 12.6781 7.0101L12.434 6.99779C12.3249 6.99446 12.2155 6.99465 12.1066 6.99643H5.36499C6.02566 6.34967 6.77717 5.79581 7.60031 5.3558Z" fill="#656565"/>
<path d="M6.05719 22.1573C5.75388 22.4609 5.79582 22.9647 6.14517 23.2139C6.42133 23.4109 6.79945 23.3793 7.03941 23.1395L14.1948 15.9841C15.2911 14.8878 15.2911 13.1101 14.1948 12.0137C13.6683 11.4873 12.954 11.1915 12.2096 11.1915H4.38756C4.07503 11.1915 3.79951 11.3977 3.71132 11.6975C3.57885 12.1485 3.917 12.6002 4.38708 12.6005L11.8065 12.6068C13.2091 12.6075 13.9112 14.3033 12.9192 15.2953L6.05719 22.1573ZM9.01928 25.1194C7.81178 26.3267 5.90856 26.4849 4.51862 25.4931C2.7605 24.2384 2.55019 21.7047 4.07729 20.1774L8.85016 15.4045L4.38563 15.4007C2.0469 15.3992 0.365304 13.1509 1.02522 10.9072C1.46389 9.41581 2.83293 8.39178 4.38756 8.39178H12.2096C13.6967 8.39178 15.1231 8.9823 16.1747 10.0338C18.3645 12.2237 18.3645 15.7742 16.1747 17.964L9.01928 25.1194Z" fill="#656565"/>
</g>
<defs>
<clipPath id="clip0_4097_1947">
<rect width="149.8" height="28" fill="white" transform="translate(0.100098)"/>
</clipPath>
</defs>
</svg>
