<svg width="15" height="16" viewBox="0 0 15 16" fill="none" xmlns="http://www.w3.org/2000/svg">
<path d="M11.6592 4.29209V10.2411C11.6592 10.3624 11.611 10.4788 11.5252 10.5647C11.4393 10.6505 11.323 10.6987 11.2016 10.6987C11.0802 10.6987 10.9638 10.6505 10.878 10.5647C10.7922 10.4788 10.744 10.3624 10.744 10.2411V5.39666L4.20351 11.9377C4.11764 12.0236 4.00118 12.0718 3.87974 12.0718C3.75831 12.0718 3.64185 12.0236 3.55598 11.9377C3.47011 11.8518 3.42188 11.7354 3.42188 11.6139C3.42188 11.4925 3.47011 11.376 3.55598 11.2902L10.097 4.7497H5.25259C5.13122 4.7497 5.01483 4.70149 4.92901 4.61567C4.84319 4.52985 4.79497 4.41345 4.79497 4.29209C4.79497 4.17072 4.84319 4.05432 4.92901 3.96851C5.01483 3.88269 5.13122 3.83447 5.25259 3.83447L11.2016 3.83447C11.323 3.83447 11.4393 3.88269 11.5252 3.96851C11.611 4.05432 11.6592 4.17072 11.6592 4.29209Z" fill="white"/>
</svg>
