<svg width="43" height="42" viewBox="0 0 43 42" fill="none" xmlns="http://www.w3.org/2000/svg">
<rect x="1.60789" y="0.623756" width="40.72" height="40.7593" rx="20.36" fill="#FFFF00"/>
<rect x="1.60789" y="0.623756" width="40.72" height="40.7593" rx="20.36" stroke="black" stroke-width="1.248"/>
<path d="M15.9462 9.98396C15.6864 9.9917 15.4398 10.1003 15.2587 10.2867L11.2586 14.2869C11.0723 14.4743 10.9678 14.7278 10.9678 14.992C10.9678 15.2562 11.0723 15.5097 11.2586 15.6971L15.2587 19.6991C15.4468 19.8865 15.7017 19.9917 15.9673 19.9914C16.2329 19.9912 16.4876 19.8856 16.6754 19.6978C16.8632 19.51 16.9688 19.2553 16.969 18.9897C16.9693 18.7241 16.8641 18.4692 16.6767 18.281L14.3895 15.994H29.9718V19.0565C29.9594 19.1948 29.9759 19.3342 30.0203 19.4658C30.0648 19.5974 30.1361 19.7182 30.2298 19.8207C30.3235 19.9232 30.4375 20.0051 30.5646 20.0611C30.6917 20.1171 30.8291 20.1461 30.9679 20.1461C31.1068 20.1461 31.2442 20.1171 31.3713 20.0611C31.4984 20.0051 31.6124 19.9232 31.7061 19.8207C31.7998 19.7182 31.8711 19.5974 31.9155 19.4658C31.96 19.3342 31.9765 19.1948 31.9641 19.0565V15.994C31.9641 14.9032 31.0626 13.9919 29.9718 13.9919H14.3797L16.6767 11.6969C16.82 11.556 16.9176 11.3752 16.9566 11.178C16.9957 10.9808 16.9744 10.7764 16.8955 10.5915C16.8167 10.4066 16.6839 10.2496 16.5145 10.1413C16.3452 10.0329 16.1471 9.97806 15.9462 9.98396ZM27.9562 21.9803C27.7572 21.9808 27.5628 22.0406 27.398 22.1521C27.2331 22.2636 27.1053 22.4217 27.0308 22.6063C26.9564 22.7909 26.9387 22.9934 26.98 23.1881C27.0213 23.3828 27.1198 23.5607 27.2628 23.6991L29.5578 25.996H13.9676V23.0213C13.9692 22.888 13.9441 22.7558 13.8938 22.6324C13.8435 22.5089 13.769 22.3967 13.6748 22.3025C13.5805 22.2082 13.4684 22.1337 13.3449 22.0834C13.2215 22.0332 13.0892 22.0081 12.9559 22.0096C12.6907 22.0127 12.4375 22.121 12.2522 22.3108C12.0669 22.5005 11.9645 22.7561 11.9676 23.0213V25.996C11.9676 27.0868 12.8769 27.9883 13.9676 27.9883H29.5578L27.2628 30.2851C27.1633 30.3762 27.0833 30.4864 27.0275 30.6092C26.9717 30.732 26.9413 30.8649 26.9382 30.9998C26.9351 31.1346 26.9593 31.2687 27.0093 31.3939C27.0594 31.5192 27.1342 31.6331 27.2294 31.7286C27.3246 31.8242 27.4381 31.8995 27.5632 31.9501C27.6882 32.0007 27.8222 32.0253 27.957 32.0228C28.0919 32.0202 28.2248 31.9905 28.3479 31.9352C28.4709 31.88 28.5815 31.8003 28.673 31.7012L32.6731 27.7011C32.7665 27.6081 32.8406 27.4977 32.8912 27.376C32.9417 27.2543 32.9678 27.1239 32.9678 26.9921C32.9678 26.8604 32.9417 26.73 32.8912 26.6083C32.8406 26.4866 32.7665 26.3761 32.6731 26.2831L28.673 22.2831C28.5798 22.1873 28.4683 22.1111 28.3452 22.0591C28.2221 22.0071 28.0898 21.9803 27.9562 21.9803Z" fill="black"/>
</svg>
