<svg width="43" height="42" viewBox="0 0 43 42" fill="none" xmlns="http://www.w3.org/2000/svg">
<rect x="0.672096" y="0.643287" width="40.72" height="40.72" rx="20.36" fill="#FFFF00"/>
<rect x="0.672096" y="0.643287" width="40.72" height="40.72" rx="20.36" stroke="black" stroke-width="1.248"/>
<g clip-path="url(#clip0_2643_1151)">
<path d="M32.0062 11.6458C31.9586 10.7719 31.2635 10.0769 30.3896 10.0292C28.6263 9.9329 25.1757 10.0266 21.8762 11.7332C20.1942 12.6032 18.4153 14.0783 16.9957 15.7802C16.9782 15.8012 16.9612 15.8223 16.9438 15.8433L13.722 16.0922C13.1917 16.1332 12.7193 16.4111 12.426 16.8547L10.228 20.1793C10.0056 20.5158 9.9702 20.9368 10.1334 21.3056C10.2966 21.6745 10.6319 21.9315 11.0304 21.9932L13.7448 22.4136C13.7352 22.4664 13.7256 22.5191 13.7168 22.5719C13.6264 23.1124 13.8055 23.6682 14.1959 24.0586L17.9768 27.8395C18.3005 28.1632 18.7379 28.3417 19.1861 28.3417C19.2784 28.3417 19.3712 28.3341 19.4635 28.3186C19.5163 28.3098 19.569 28.3002 19.6218 28.2906L20.0422 31.005C20.104 31.4036 20.361 31.7389 20.7298 31.9021C20.8832 31.97 21.0456 32.0035 21.2072 32.0035C21.4342 32.0035 21.6596 31.9374 21.8561 31.8075L25.1807 29.6094C25.6243 29.3161 25.9022 28.8437 25.9431 28.3134L26.192 25.0917C26.213 25.0743 26.2342 25.0573 26.2551 25.0398C27.9571 23.6202 29.4322 21.8413 30.3022 20.1592C32.0089 16.8596 32.1024 13.409 32.0062 11.6458ZM24.4698 28.5341L21.2896 30.6367L20.8798 27.9913C22.2239 27.5961 23.5535 26.9632 24.8202 26.1153L24.658 28.2141C24.6479 28.345 24.5793 28.4617 24.4698 28.5341ZM18.8883 26.928L15.1074 23.1471C15.0109 23.0506 14.9663 22.915 14.9882 22.7844C15.1006 22.1123 15.2753 21.4724 15.4915 20.8697L21.1646 26.5427C20.4406 26.802 19.7922 26.9567 19.251 27.0472C19.1202 27.069 18.9848 27.0245 18.8883 26.928ZM13.8213 17.3774L15.9201 17.2153C15.0721 18.482 14.4392 19.8115 14.044 21.1556L11.3987 20.7459L13.5013 17.5657C13.5738 17.4561 13.6904 17.3875 13.8213 17.3774ZM25.4295 24.0499C24.3883 24.9184 23.3775 25.5466 22.4459 26.0012L16.034 19.5893C16.6295 18.3731 17.3562 17.3604 17.9856 16.6059C19.2993 15.0309 20.9333 13.6722 22.4685 12.8782C25.4967 11.3118 28.6872 11.2275 30.3195 11.3163C30.5355 11.3281 30.7074 11.4999 30.7191 11.716C30.8081 13.3483 30.7236 16.5387 29.1573 19.567C28.3632 21.1022 27.0045 22.7361 25.4295 24.0499Z" fill="black"/>
<path d="M25.1022 20.1542C25.9273 20.1541 26.7527 19.84 27.3809 19.2119C27.9896 18.6032 28.3247 17.794 28.3247 16.9332C28.3247 16.0725 27.9895 15.2632 27.3809 14.6545C26.1244 13.398 24.0799 13.3981 22.8235 14.6545C22.2148 15.2632 21.8796 16.0725 21.8796 16.9332C21.8796 17.794 22.2149 18.6032 22.8235 19.2119C23.4518 19.8402 24.2768 20.1543 25.1022 20.1542ZM23.7349 15.566C24.1119 15.189 24.607 15.0006 25.1021 15.0006C25.5973 15.0006 26.0924 15.189 26.4693 15.566C26.8345 15.9312 27.0356 16.4167 27.0356 16.9332C27.0356 17.4496 26.8345 17.9352 26.4693 18.3004C25.7155 19.0543 24.4888 19.0542 23.7349 18.3004C23.3697 17.9352 23.1686 17.4496 23.1686 16.9332C23.1686 16.4168 23.3698 15.9312 23.7349 15.566Z" fill="black"/>
<path d="M10.6899 28.1334C10.8549 28.1334 11.0198 28.0705 11.1456 27.9446L13.25 25.8403C13.5017 25.5886 13.5017 25.1805 13.25 24.9288C12.9983 24.6771 12.5902 24.6771 12.3385 24.9288L10.2342 27.0331C9.98248 27.2848 9.98248 27.6929 10.2342 27.9446C10.36 28.0704 10.525 28.1334 10.6899 28.1334Z" fill="black"/>
<path d="M15.1779 26.8572C14.9263 26.6055 14.5182 26.6055 14.2664 26.8572L10.2208 30.903C9.96905 31.1547 9.96905 31.5627 10.2208 31.8145C10.3466 31.9403 10.5115 32.0032 10.6765 32.0032C10.8414 32.0032 11.0064 31.9403 11.1322 31.8144L15.1779 27.7687C15.4297 27.517 15.4297 27.109 15.1779 26.8572Z" fill="black"/>
<path d="M16.1952 28.7857L14.0909 30.89C13.8392 31.1417 13.8392 31.5498 14.0909 31.8015C14.2167 31.9274 14.3817 31.9903 14.5466 31.9903C14.7115 31.9903 14.8765 31.9274 15.0023 31.8015L17.1066 29.6972C17.3584 29.4455 17.3584 29.0374 17.1066 28.7857C16.855 28.534 16.4469 28.534 16.1952 28.7857Z" fill="black"/>
</g>
<defs>
<clipPath id="clip0_2643_1151">
<rect width="22" height="22" fill="white" transform="translate(10.032 10.0032)"/>
</clipPath>
</defs>
</svg>
