<svg width="43" height="42" viewBox="0 0 43 42" fill="none" xmlns="http://www.w3.org/2000/svg">
<rect x="1.57615" y="0.627418" width="40.752" height="40.752" rx="20.376" fill="#FFFF00"/>
<rect x="1.57615" y="0.627418" width="40.752" height="40.752" rx="20.376" stroke="black" stroke-width="1.248"/>
<g clip-path="url(#clip0_2643_1184)">
<path d="M32.577 14.1542C32.2915 13.8167 31.8918 13.6106 31.4512 13.5738L15.9361 12.2783C15.4955 12.2415 15.0672 12.3785 14.7297 12.6639C14.3936 12.9482 14.1878 13.346 14.1498 13.7843L13.8377 16.7129H12.5913C11.6789 16.7129 10.9365 17.4552 10.9365 18.3676V28.0798C10.9365 28.9923 11.6789 29.7346 12.5913 29.7346H28.1605C29.073 29.7346 29.8153 28.9923 29.8153 28.0798V26.5043L30.3678 26.5505C30.4144 26.5543 30.4607 26.5563 30.5067 26.5563C31.3573 26.5563 32.0825 25.9018 32.1545 25.0391L32.9627 15.3606C32.9994 14.9201 32.8624 14.4917 32.577 14.1542ZM12.5913 17.5735H28.1605C28.5984 17.5735 28.9547 17.9297 28.9547 18.3676V19.2526H11.7971V18.3676C11.7971 17.9297 12.1534 17.5735 12.5913 17.5735ZM11.7971 20.1132H28.9547V21.8985H11.7971V20.1132ZM28.1605 28.874H12.5913C12.1534 28.874 11.7971 28.5177 11.7971 28.0798V22.7592H28.9547V28.0798C28.9547 28.5177 28.5984 28.874 28.1605 28.874ZM32.105 15.289L31.2969 24.9675C31.2604 25.4038 30.8757 25.7294 30.4394 25.6928L29.8153 25.6407V18.3676C29.8153 17.4552 29.073 16.7129 28.1605 16.7129H14.7032L15.0061 13.8711C15.0064 13.8678 15.0067 13.8646 15.007 13.8613C15.0435 13.4249 15.428 13.0994 15.8645 13.136L31.3797 14.4315C31.5911 14.4491 31.783 14.5481 31.9199 14.71C32.0569 14.872 32.1227 15.0775 32.105 15.289Z" fill="black"/>
<path d="M27.1542 24.0386H23.0128C22.7752 24.0386 22.5825 24.2312 22.5825 24.4689V27.1708C22.5825 27.4084 22.7752 27.6011 23.0128 27.6011H27.1542C27.3919 27.6011 27.5846 27.4084 27.5846 27.1708V24.4689C27.5846 24.2312 27.3919 24.0386 27.1542 24.0386ZM26.7239 26.7405H23.4431V24.8992H26.7239V26.7405Z" fill="black"/>
</g>
<defs>
<clipPath id="clip0_2643_1184">
<rect width="22.032" height="22.032" fill="white" transform="translate(10.936 9.9873)"/>
</clipPath>
</defs>
</svg>
