<svg width="65" height="14" viewBox="0 0 65 14" fill="none" xmlns="http://www.w3.org/2000/svg">
<path d="M8.54614 5.18994L8.60474 5.30811L8.73462 5.32666L12.3342 5.8501L9.72876 8.38818L9.63501 8.47998L9.65747 8.60986L10.2727 12.1948L7.052 10.5034L6.93579 10.4419L6.81958 10.5034L3.5979 12.1948L4.21411 8.60986L4.23657 8.47998L4.14282 8.38818L1.53638 5.84619L5.13696 5.32666L5.26685 5.30811L5.32544 5.18994L6.93579 1.92627L8.54614 5.18994Z" fill="#FFFF00" stroke="black" stroke-width="0.5"/>
<g clip-path="url(#clip0_4064_380)">
<path d="M21.4502 5.18994L21.5088 5.30811L21.6387 5.32666L25.2383 5.8501L22.6328 8.38818L22.5391 8.47998L22.5615 8.60986L23.1768 12.1948L19.9561 10.5034L19.8398 10.4419L19.7236 10.5034L16.502 12.1948L17.1182 8.60986L17.1406 8.47998L17.0469 8.38818L14.4404 5.84619L18.041 5.32666L18.1709 5.30811L18.2295 5.18994L19.8398 1.92627L21.4502 5.18994Z" fill="#FFFF00" stroke="black" stroke-width="0.5"/>
</g>
<g clip-path="url(#clip1_4064_380)">
<path d="M34.3528 5.18994L34.4114 5.30811L34.5413 5.32666L38.1409 5.8501L35.5354 8.38818L35.4417 8.47998L35.4641 8.60986L36.0793 12.1948L32.8586 10.5034L32.7424 10.4419L32.6262 10.5034L29.4045 12.1948L30.0208 8.60986L30.0432 8.47998L29.9495 8.38818L27.343 5.84619L30.9436 5.32666L31.0735 5.30811L31.1321 5.18994L32.7424 1.92627L34.3528 5.18994Z" fill="#FFFF00" stroke="black" stroke-width="0.5"/>
</g>
<g clip-path="url(#clip2_4064_380)">
<path d="M47.2556 5.18994L47.3142 5.30811L47.4441 5.32666L51.0437 5.8501L48.4382 8.38818L48.3445 8.47998L48.3669 8.60986L48.9822 12.1948L45.7615 10.5034L45.6453 10.4419L45.5291 10.5034L42.3074 12.1948L42.9236 8.60986L42.946 8.47998L42.8523 8.38818L40.2458 5.84619L43.8464 5.32666L43.9763 5.30811L44.0349 5.18994L45.6453 1.92627L47.2556 5.18994Z" fill="#FFFF00" stroke="black" stroke-width="0.5"/>
</g>
<g clip-path="url(#clip3_4064_380)">
<path d="M60.1592 5.18994L60.2178 5.30811L60.3477 5.32666L63.9473 5.8501L61.3418 8.38818L61.248 8.47998L61.2705 8.60986L61.8857 12.1948L58.665 10.5034L58.5488 10.4419L58.4326 10.5034L55.2109 12.1948L55.8271 8.60986L55.8496 8.47998L55.7559 8.38818L53.1494 5.84619L56.75 5.32666L56.8799 5.30811L56.9385 5.18994L58.5488 1.92627L60.1592 5.18994Z" fill="black" stroke="black" stroke-width="0.5"/>
</g>
<defs>
<clipPath id="clip0_4064_380">
<rect width="12.9032" height="12.9032" fill="white" transform="translate(13.3872 0.55542)"/>
</clipPath>
<clipPath id="clip1_4064_380">
<rect width="12.9032" height="12.9032" fill="white" transform="translate(26.2903 0.55542)"/>
</clipPath>
<clipPath id="clip2_4064_380">
<rect width="12.9032" height="12.9032" fill="white" transform="translate(39.1936 0.55542)"/>
</clipPath>
<clipPath id="clip3_4064_380">
<rect width="12.9032" height="12.9032" fill="white" transform="translate(52.0967 0.55542)"/>
</clipPath>
</defs>
</svg>
