<svg width="85" height="85" viewBox="0 0 85 85" fill="none" xmlns="http://www.w3.org/2000/svg">
<path d="M42.5 77.9149C48.3579 77.9149 53.125 73.1478 53.125 67.2899C53.125 64.3822 51.9031 61.5949 49.7534 59.5762C39.0788 31.8237 52.8063 2.83154 52.9479 2.54118C53.3481 1.71243 53.047 0.717162 52.2572 0.246176C51.471 -0.214185 50.4475 -0.00882388 49.9126 0.742065C49.176 1.76904 31.875 26.4615 31.875 67.2899C31.875 73.1478 36.6421 77.9149 42.5 77.9149Z" fill="black"/>
<path d="M5.3125 71.3315C7.96886 71.3315 10.125 73.4877 10.125 76.144C10.125 78.8004 7.96886 80.9565 5.3125 80.9565C2.65614 80.9565 0.5 78.8004 0.5 76.144C0.5 73.4877 2.65614 71.3315 5.3125 71.3315Z" fill="#FFFF00" stroke="black"/>
<path d="M19.479 74.8732C22.1354 74.8732 24.2915 77.0293 24.2915 79.6857C24.2915 82.342 22.1354 84.4982 19.479 84.4982C16.8226 84.4982 14.6665 82.342 14.6665 79.6857C14.6665 77.0293 16.8226 74.8732 19.479 74.8732Z" fill="#FFFF00" stroke="black"/>
<path d="M65.521 71.3315C68.1774 71.3315 70.3335 73.4877 70.3335 76.144C70.3335 78.8004 68.1774 80.9565 65.521 80.9565C62.8646 80.9565 60.7085 78.8004 60.7085 76.144C60.7085 73.4877 62.8646 71.3315 65.521 71.3315Z" fill="#FFFF00" stroke="black"/>
<path d="M79.6875 67.2899C80.665 67.2899 81.4584 66.4966 81.4584 65.5191C81.4584 64.5416 80.665 63.7482 79.6875 63.7482H58.2604C57.7575 63.7482 57.2757 63.9642 56.9394 64.3397C56.6029 64.715 56.4435 65.2181 56.4966 65.7174L56.571 66.2806C56.617 66.6099 56.6666 66.9428 56.6666 67.2899C56.6666 75.1028 50.3129 81.4566 42.5 81.4566C34.6871 81.4566 28.3334 75.1028 28.3334 67.2899C28.3334 66.9534 28.383 66.6312 28.4255 66.309L28.4964 65.753C28.5105 65.6148 28.4999 65.4377 28.4858 65.2996C28.3761 64.4142 27.6217 63.7483 26.7292 63.7483H1.77089C0.793389 63.7482 0 64.5416 0 65.5191C0 66.4966 0.793389 67.2899 1.77089 67.2899H24.7918C24.7918 77.0543 32.7358 84.9983 42.5002 84.9983C52.2645 84.9983 60.2086 77.0543 60.2086 67.2899H79.6875Z" fill="black"/>
<path d="M79.6875 74.8732C82.3439 74.8732 84.5 77.0293 84.5 79.6857C84.5 82.342 82.3439 84.4982 79.6875 84.4982C77.0311 84.4982 74.875 82.342 74.875 79.6857C74.875 77.0293 77.0311 74.8732 79.6875 74.8732Z" fill="#FFFF00" stroke="black"/>
</svg>
