<svg width="24" height="24" viewBox="0 0 24 24" fill="none" xmlns="http://www.w3.org/2000/svg">
<path d="M11.8667 11.6707C13.0579 11.6707 14.0893 11.2434 14.9321 10.4005C15.7749 9.55774 16.2021 8.52654 16.2021 7.33522C16.2021 6.14431 15.7749 5.11298 14.932 4.26993C14.0891 3.42728 13.0577 3.00005 11.8667 3.00005C10.6754 3.00005 9.64418 3.42728 8.8014 4.27006C7.95861 5.11284 7.53125 6.14418 7.53125 7.33522C7.53125 8.52654 7.95861 9.55788 8.80153 10.4007C9.64445 11.2433 10.6758 11.6707 11.8667 11.6707Z" fill="black"/>
<path d="M19.4527 16.8411C19.4283 16.4903 19.3792 16.1077 19.3068 15.7037C19.2337 15.2967 19.1397 14.9119 19.0271 14.5602C18.9108 14.1967 18.7526 13.8377 18.557 13.4937C18.354 13.1367 18.1156 12.8257 17.8481 12.5699C17.5684 12.3022 17.2259 12.0871 16.8298 11.9301C16.4351 11.7739 15.9978 11.6948 15.5299 11.6948C15.3461 11.6948 15.1684 11.7702 14.8252 11.9937C14.614 12.1314 14.367 12.2907 14.0912 12.4669C13.8554 12.6171 13.536 12.7579 13.1415 12.8853C12.7565 13.0099 12.3657 13.0731 11.9799 13.0731C11.5942 13.0731 11.2035 13.0099 10.8182 12.8853C10.424 12.758 10.1046 12.6173 9.86908 12.467C9.59594 12.2925 9.34874 12.1332 9.13438 11.9935C8.79161 11.7701 8.61377 11.6947 8.43002 11.6947C7.96201 11.6947 7.52476 11.7739 7.13021 11.9302C6.73443 12.0869 6.3918 12.3021 6.11179 12.57C5.84441 12.826 5.60587 13.1368 5.40318 13.4937C5.20776 13.8377 5.04956 14.1966 4.9331 14.5603C4.82063 14.912 4.72656 15.2967 4.6535 15.7037C4.58113 16.1072 4.53197 16.4899 4.50766 16.8415C4.48376 17.1859 4.47168 17.5434 4.47168 17.9044C4.47168 18.844 4.77037 19.6047 5.35937 20.1656C5.94109 20.7192 6.71081 21.0001 7.64684 21.0001H16.3139C17.2499 21.0001 18.0194 20.7194 18.6012 20.1656C19.1904 19.6051 19.489 18.8443 19.489 17.9043C19.4889 17.5416 19.4767 17.1838 19.4527 16.8411Z" fill="black"/>
</svg>
