<svg width="85" height="85" viewBox="0 0 85 85" fill="none" xmlns="http://www.w3.org/2000/svg">
<g clip-path="url(#clip0_2643_1035)">
<path d="M43.9567 33.9663C38.7058 26.0937 41.8563 3.51447 37.1317 2.153C32.9323 0.891858 19.9091 9.50315 13.5049 20.9486C7.09839 32.3951 -0.775557 49.507 15.1859 60.3255C23.8989 67.0434 12.6672 70.1944 10.6699 64.8402C10.4839 75.73 21.1811 76.0099 22.7457 68.3048C23.834 62.9402 17.3141 51.6862 15.2914 46.2534C10.3544 33.0244 24.9503 15.2767 24.9503 15.2767C24.9503 15.2767 11.9299 36.6989 17.1794 47.0954C35.1371 73.5561 23.1837 72.9257 18.5436 76.0786C36.0803 76.9179 42.1083 61.4525 43.1163 59.381C45.4237 53.1853 44.0066 42.1598 38.2848 36.9127C36.9206 35.7042 35.6606 37.1739 30.9082 36.9127C26.1561 36.6474 28.7299 32.1868 28.7299 32.1868C28.7299 32.1868 27.09 30.7948 27.0491 30.1919C27.0096 29.5901 28.5163 29.1418 28.5163 29.1418C28.5163 29.1418 27.0466 28.3527 26.9422 27.6721C26.8394 26.9847 28.5202 25.3579 28.5202 25.3579C28.5202 25.3579 26.3012 24.3341 26.2603 23.3102C26.2207 22.2865 28.6813 20.5976 31.0377 15.6988C32.8215 11.9967 32.7185 5.82887 35.5524 4.40932C37.2332 7.2988 30.3054 29.3488 41.6439 36.3848C43.7429 37.5391 57.1843 48.04 46.1574 61.5842C58.3402 53.0796 47.2577 38.8149 43.9567 33.9663Z" fill="black"/>
<path d="M52.8807 0.680776C58.1316 6.87915 52.7749 30.2947 65.1663 38.0631C81.9642 50.0348 70.1243 66.173 67.6863 70.5109C71.8871 58.3309 71.573 52.0297 69.5754 47.0954C67.578 42.1622 54.9809 29.0363 52.986 22.4183C50.9913 15.8018 50.3607 -2.46451 40.695 0.861552C49.6269 12.13 44.2177 22.4619 56.3977 37.9576C68.5777 53.4519 66.1081 75.2342 55.9281 80.2713C71.834 59.2201 57.8172 42.7863 53.722 36.2739C51.5556 32.8292 47.0041 29.9754 46.5818 21.9973C46.1621 14.0153 40.6157 0.205559 38.3926 0.997361C44.1675 12.4425 38.1815 28.5082 51.0967 43.9444C59.9149 53.6047 63.8043 74.606 48.8959 84.9997C64.5406 84.369 73.5701 67.6768 77.349 56.8582C82.3888 41.8427 68.0026 28.9305 65.274 23.6783C62.5436 18.4244 61.071 0.78879 52.8807 0.680776Z" fill="black"/>
<path d="M73.0402 17.6384C68.0001 9.60623 61.0106 4.8961 58.3982 2.91321C65.5594 15.2767 65.0847 20.7888 67.6838 24.5716C70.2829 28.3503 74.8504 29.2196 79.1832 42.7324C79.3387 40.8112 78.0802 25.6743 73.0402 17.6384Z" fill="#FFFF00" stroke="black"/>
<path d="M51.7385 9.60872C52.0919 11.5733 53.8231 21.7348 55.1633 23.6268C54.3006 11.1842 55.4826 11.8913 54.4562 7.24462C53.4299 2.5964 51.6196 0.0777339 45.6353 0C51.6196 5.03982 51.3849 7.64436 51.7385 9.60872Z" fill="#FFFF00" stroke="black"/>
</g>
<defs>
<clipPath id="clip0_2643_1035">
<rect width="85" height="84.9998" fill="white"/>
</clipPath>
</defs>
</svg>
